<?xml version="1.0" encoding="utf-8"?>
<!-- Generator: Adobe Illustrator 18.0.0, SVG Export Plug-In . SVG Version: 6.00 Build 0)  -->
<!DOCTYPE svg PUBLIC "-//W3C//DTD SVG 1.1//EN" "http://www.w3.org/Graphics/SVG/1.1/DTD/svg11.dtd">
<svg version="1.1" id="Layer_1" xmlns="http://www.w3.org/2000/svg" xmlns:xlink="http://www.w3.org/1999/xlink" x="0px" y="0px"
	 viewBox="0 0 300.6 300.6" enable-background="new 0 0 300.6 300.6" xml:space="preserve">
<g>
	<g>
		<path fill="#8CC640" d="M178.4,190.7c15.4-62.2,13.2-112.4-0.8-118.4c-0.1,0-0.2,0-0.2-0.1l-1.1,9.1c0.1,0,0.2,0,0.2,0
			c10.6,2.5,8.5,66-2.5,110.4c-11,44.3-38.6,100.8-48.2,95.8l-3.1,7.7c0.3,0.1,0.5,0.2,0.8,0.3C138.1,299.9,163.1,252.9,178.4,190.7
			"/>
		<path fill="#8CC640" d="M195.2,279.7c-28.4-0.6-63.5-17.1-93-46.3c-45.5-45.1-60.8-103.8-34-130.9l6.8,6.7
			c-23.1,23.3-12.6,79.7,29.2,121.1c41.8,41.4,99.3,52.4,122.4,29.1l6.8,6.7C224,275.7,210.6,280,195.2,279.7"/>
		<path fill="#8CC640" d="M198,93.2c17.8,0,32.9,5.6,42.5,17.1l-7.4,6.1c-20.9-25.3-79.2-20.1-124.6,17.4
			C63.1,171.3,47.6,227,68.6,252.3l-7.4,6.1c-24.3-29.4-3.8-86.5,45.6-127.3C136.7,106.3,170.6,93.2,198,93.2"/>
		<path fill="#8CC640" d="M45.7,201c-5.4-6.7,36.5-29,102.3-39.4c65.5-10.3,107.9-1.9,108.2,6l9.5-1.4
			c-4.1-25.6-114.2-8.5-118.9-7.8c-4.7,0.7-114.8,18.4-110.8,44c0,0,0,0.1,0,0.1L45.7,201C45.7,201.1,45.7,201,45.7,201"/>
		<path fill="#8CC640" d="M100.2,237.1c-4.5,0-8.2-3.7-8.2-8.2c0-4.5,3.7-8.2,8.2-8.2c4.5,0,8.2,3.7,8.2,8.2
			C108.4,233.4,104.7,237.1,100.2,237.1"/>
		<path fill="#8CC640" d="M99.7,148c-4.5,0-8.2-3.7-8.2-8.2c0-4.5,3.7-8.2,8.2-8.2c4.5,0,8.2,3.7,8.2,8.2
			C107.9,144.3,104.2,148,99.7,148"/>
		<path fill="#8CC640" d="M164.8,163.9c-3.6,0-6.5-2.9-6.5-6.5c0-3.6,2.9-6.5,6.5-6.5c3.6,0,6.5,2.9,6.5,6.5
			C171.2,161,168.3,163.9,164.8,163.9"/>
		<path fill="#8CC640" d="M179.1,185.9c-4.5,0-8.2-3.7-8.2-8.2c0-4.5,3.7-8.2,8.2-8.2c4.5,0,8.2,3.7,8.2,8.2
			C187.4,182.2,183.7,185.9,179.1,185.9"/>
	</g>
	<g>
		<path fill="#24B0E6" d="M240.4,110.3c24.3,29.4,5.6,87.6-43.8,128.4c-49.4,40.8-111.1,49.1-135.4,19.7l7.4-6.1
			c14.3,23.9,76.6,17,122-20.4c45.3-37.5,63.1-95.8,42.5-115.5L240.4,110.3z"/>
		<path fill="#00B2EF" d="M233.4,266.2l-6.8-6.7c23.1-23.3,8.9-77.1-32.9-118.5C152,99.6,98.1,85.9,75,109.3l-6.8-6.7
			C95,75.5,155.5,89.1,201,134.2C246.6,179.3,260.2,239.1,233.4,266.2"/>
		<path fill="#24B0E6" d="M155.6,212.2c14.4-2.1,114-20.3,110-45.9l0,0l-9.4,1.4v0c0.2,7.3-37.5,24.9-103.1,35.2
			c-65.7,10.3-103,5.8-107.4-1.9l-9.7,1.5C41.8,228,138.1,214.7,155.6,212.2"/>
		<path fill="#24B0E6" d="M144.6,44.3V6.2c0-3.4,2.8-6.2,6.2-6.2c3.4,0,6.2,2.8,6.2,6.2v38.2c0,3.4-2.8,6.2-6.2,6.2
			C147.4,50.5,144.6,47.7,144.6,44.3"/>
		<path fill="#24B0E6" d="M211.6,64.9c-2.2-1.1-3.5-3.3-3.5-5.6c0-0.9,0.2-1.8,0.6-2.6l16.5-34.4c1.1-2.2,3.3-3.5,5.6-3.5
			c0.9,0,1.8,0.2,2.6,0.6c2.2,1,3.5,3.3,3.5,5.6c0,0.9-0.2,1.8-0.6,2.7L219.8,62c-1.1,2.2-3.3,3.5-5.6,3.5
			C213.4,65.5,212.4,65.3,211.6,64.9"/>
		<path fill="#24B0E6" d="M87,64.9c-0.9,0.4-1.8,0.6-2.7,0.6c-2.3,0-4.5-1.3-5.6-3.5L62.3,27.6c-0.4-0.9-0.6-1.8-0.6-2.7
			c0-2.3,1.3-4.5,3.5-5.6c0.9-0.4,1.8-0.6,2.7-0.6c2.3,0,4.5,1.3,5.6,3.5L90,56.7c0.4,0.8,0.6,1.8,0.6,2.6
			C90.6,61.6,89.3,63.9,87,64.9"/>
		<path fill="#24B0E6" d="M256.8,103.2c-0.6-1-0.9-2.1-0.9-3.3c0-2.1,1-4.1,2.9-5.3l32.4-20.1c1-0.6,2.1-0.9,3.3-0.9
			c2.1,0,4.1,1,5.3,2.9c0.6,1,0.9,2.1,0.9,3.3c0,2.1-1,4.1-2.9,5.3l-32.4,20.1c-1,0.7-2.1,0.9-3.3,0.9
			C260,106.1,258,105.1,256.8,103.2"/>
		<path fill="#24B0E6" d="M43.8,103.2c-1.2,1.9-3.2,2.9-5.2,2.9c-1.1,0-2.2-0.3-3.3-0.9L2.9,85C1,83.9,0,81.9,0,79.8
			c0-1.1,0.3-2.2,0.9-3.3c1.2-1.9,3.2-2.9,5.2-2.9c1.1,0,2.2,0.3,3.3,0.9l32.4,20.1c1.9,1.2,2.9,3.2,2.9,5.3
			C44.8,101,44.5,102.2,43.8,103.2"/>
		<path fill="#24B0E6" d="M149,220c-7.1,0-12.9-5.8-12.9-12.9c0-7.1,5.8-12.9,12.9-12.9c7.1,0,12.9,5.8,12.9,12.9
			C161.9,214.2,156.1,220,149,220"/>
		<path fill="#24B0E6" d="M211.3,167.4c-7.8,0-14.1-6.3-14.1-14.1c0-7.8,6.3-14.1,14.1-14.1c7.8,0,14.1,6.3,14.1,14.1
			C225.4,161.1,219.1,167.4,211.3,167.4"/>
		<path fill="#24B0E6" d="M196,248.6c-8.4,0-15.3-6.8-15.3-15.3c0-8.4,6.8-15.3,15.3-15.3c8.4,0,15.3,6.9,15.3,15.3
			C211.3,241.7,204.4,248.6,196,248.6"/>
		<path fill="#24B0E6" d="M131,178.6c-9.7,0-17.6-7.9-17.6-17.6c0-9.7,7.9-17.6,17.6-17.6c9.7,0,17.6,7.9,17.6,17.6
			C148.6,170.7,140.7,178.6,131,178.6"/>
		<path fill="#24B0E6" d="M125.7,287.6c-12.5-6.9-5.5-65.1,5.5-109.5c10.9-44.2,32.8-98.9,45.1-96.7l1.1-9.1
			c-14.4-5.6-40.5,35.2-56.2,104.5c-16.9,74.7-15.5,112.6,1.4,118.6L125.7,287.6C125.7,287.6,125.7,287.6,125.7,287.6"/>
		<path fill="#24B0E6" d="M150.8,77.7C92,77.7,44.1,125.5,44.1,184.4c0,58.8,47.9,106.7,106.7,106.7c58.8,0,106.7-47.9,106.7-106.7
			C257.5,125.5,209.6,77.7,150.8,77.7 M150.8,300.6c-64.1,0-116.3-52.2-116.3-116.3c0-64.1,52.2-116.2,116.3-116.2
			c64.1,0,116.3,52.1,116.3,116.2C267.1,248.5,214.9,300.6,150.8,300.6"/>
	</g>
</g>
</svg>
